<svg xmlns="http://www.w3.org/2000/svg" width="76" height="100" viewBox="0 0 76 100"><title>astronaut (1)</title><g fill="none"><g id="astronaut"><path id="Vector" d="M51.82 50h-27.64v-17.26a2 2 0 0 1 2-2h23.62a2 2 0 0 1 2 2l0.02 17.26z" fill="#2CB4FF"></path><path id="Vector_2" d="M48.47 57.22a3.15 3.15 0 1 0 6.31 0h-6.31z m-27.25 0a3.15 3.15 0 1 0 6.31 0" fill="#93AFBC"></path><path id="Vector_3" d="M38 36.88h-10.1v42.4h8.1v-20.19h2" fill="#D7EBF4"></path><path id="Vector_4" d="M38 59.09h2v20.19h8.1v-42.4h-10.1" fill="#BFD7E2"></path><path id="Vector_5" d="M38 20.72a10.1 10.1 0 0 1 10.1 10.1v6.06h-10.1" fill="#D7EBF4"></path><path id="Vector_6" d="M38 36.88h-10.1v-6.06a10.1 10.1 0 0 1 10.1-10.1" fill="#BFD7E2"></path><path id="Vector_7" d="M36 79.28h-8.1v-2a4 4 0 1 1 8 0l0.1 2z m12.1 0h-8.1v-2a4 4 0 1 1 8 0l0.1 2z" fill="#105A6B"></path><path id="Vector_8" d="M36 69.18h-8.1a1 1 0 0 1 0-2h8.1a1 1 0 0 1 0 2z" fill="#BFD7E2"></path><path id="Vector_9" d="M48.1 69.18h-8.1a1 1 0 0 1 0-2h8.1a1 1 0 0 1 0 2z" fill="#D7EBF4"></path><path id="Vector_10" d="M36 65.14h-8.1a1 1 0 0 1 0-2h8.1a1 1 0 0 1 0 2z" fill="#BFD7E2"></path><path id="Vector_11" d="M48.1 65.14h-8.1a1 1 0 0 1 0-2h8.1a1 1 0 0 1 0 2z" fill="#D7EBF4"></path><path id="Vector_12" d="M48.1 54h-20.2a1 1 0 0 1 0-2h20.2a1 1 0 0 1 0 2z" fill="#AAC7D1"></path><path id="Vector_13" d="M31.94 45a2 2 0 0 1 2-2h8.06a2 2 0 0 1 2 2" fill="#FF7F00"></path><path id="Vector_14" d="M44.06 45a2 2 0 0 1-2 2h-8.06a2 2 0 0 1-2-2" fill="#E84505"></path><path id="Vector_15" d="M38 33.42h-7v-2.33a7 7 0 0 1 7-7" fill="#04727A"></path><path id="Vector_16" d="M38 24.1a7 7 0 0 1 7 7v2.33h-7" fill="#105A6B"></path><path id="Vector_17" d="M45.53 33.42h-1.06v-2.33a6.47 6.47 0 0 0-12.94 0v2.33h-1.06v-2.33a7.53 7.53 0 1 1 15.05 0l0.01 2.33z m0.63 1.12h-16.32a0.53 0.53 0 1 1 0-1.06h16.32a0.53 0.53 0 1 1 0 1.06z" fill="#93AFBC"></path><path id="Vector_18" d="M55.16 57.57h-7.06v-20.85h5a2 2 0 0 1 2 2l0.06 18.85z" fill="#D7EBF4"></path><path id="Vector_19" d="M20.84 57.57h7.06v-20.67h-5a2 2 0 0 0-2 2l-0.06 18.67z" fill="#BFD7E2"></path><path id="Vector_20" d="M20.84 46.97h6.06v2.02h-6.06v-2.02z m0-4.04h6.06v2.02h-6.06v-2.02z" fill="#D7EBF4"></path><path id="Vector_21" d="M49.11 46.97h6.06v2.02h-6.06v-2.02z m0-4.04h6.06v2.02h-6.06v-2.02z" fill="#BFD7E2"></path></g></g></svg>