<svg xmlns="http://www.w3.org/2000/svg" width="88" height="88" viewBox="0 0 92 92"><title>game-controller-svgrepo-com</title><g><path d="M50.63 50.15c0.13 0.71-0.33 1.36-1.04 1.48l-5.28 0.93c-0.71 0.13-1.36-0.33-1.48-1.04l-1.35-7.64c-0.13-0.71 0.33-1.36 1.04-1.48l5.28-0.93c0.71-0.13 1.36 0.33 1.48 1.04l1.35 7.64z" fill="#3A2819"></path><path d="M74 62.92c0.18 1.02-0.4 2.35-1.42 2.53l-45.22 7.97c-1.02 0.18-2.02-0.86-2.21-1.88l-3.34-18.99c-0.18-1.02 0.5-1.79 1.52-1.98l45.22-7.97c1.02-0.18 1.92 0.31 2.1 1.34l3.35 18.98z" fill="#A09D93"></path><path d="M73.57 60.48c0.18 1.02-0.52 1.64-1.55 1.82l-45.22 7.97c-1.02 0.18-1.9-0.15-2.08-1.18l-3.34-18.98c-0.18-1.02 0.51-1.71 1.53-1.9l45.22-7.97c1.02-0.18 1.91 0.23 2.09 1.25l3.35 18.99z" fill="#D8D6CA"></path><path d="M22.68 48.25l45.45-8.01c1.02-0.18 1.91 0.23 2.09 1.25l3.35 18.99c0.18 1.02-0.52 1.64-1.55 1.82" fill="#C1BDAE"></path><path d="M50.45 53.75c0.01 0.08-0.05 0.17-0.13 0.19l-5.99 1.05c-0.08 0.01-0.17-0.05-0.18-0.13l-0.22-1.26c-0.01-0.08 0.05-0.17 0.13-0.18l5.98-1.06c0.08-0.01 0.17 0.05 0.19 0.13l0.22 1.26z" fill="#F9A12C"></path><path d="M44.69 53.31l5.51-0.98 0.25 1.42c0.01 0.08-0.05 0.17-0.13 0.19" fill="#E88813"></path><path d="M51.15 57.69c0.01 0.08-0.05 0.17-0.13 0.19l-5.99 1.05c-0.08 0.01-0.17-0.05-0.19-0.13l-0.22-1.26c-0.01-0.08 0.05-0.17 0.13-0.18l5.99-1.06c0.08-0.01 0.17 0.05 0.18 0.13l0.23 1.26z" fill="#F9A12C"></path><path d="M45.38 57.25l5.52-0.98 0.25 1.42c0.01 0.08-0.05 0.17-0.13 0.19" fill="#E88813"></path><path d="M42.29 62.75c0.13 0.71-0.21 1.58-0.92 1.7l-12.76 2.25c-0.71 0.13-1.16-0.61-1.29-1.31l-2.24-12.69c-0.13-0.71 0.04-1.63 0.75-1.75l12.69-2.24c0.71-0.13 1.32 0.58 1.45 1.37l2.24 12.68 0.08-0.01z" fill="#3A2819"></path><path d="M69.89 58.04c0.13 0.71-0.39 1.45-1.1 1.58l-13.08 2.3c-0.71 0.13-1.45-0.39-1.57-1.1l-2.31-13.08c-0.13-0.71 0.39-1.45 1.1-1.57l13.08-2.31c0.71-0.13 1.45 0.39 1.58 1.1l2.3 13.08z" fill="#3A2819"></path><path d="M37.6 54.56l-1.58 0.27-0.36-2.04c-0.1-0.55-0.75-1.01-1.22-0.93l-3.55 0.63c-0.55 0.1-0.85 0.72-0.75 1.27l0.36 2.05-1.73 0.3c-0.55 0.1-0.62 0.19-0.52 0.74l0.63 3.55c0.1 0.55 0.32 1.33 0.86 1.23l1.74-0.31 0.23 1.34c0.1 0.55 0.58 0.96 1.13 0.86l3.54-0.63c0.55-0.1 0.93-0.73 0.85-1.2l-0.24-1.34 1.58-0.28c0.55-0.1 0.65-0.93 0.55-1.48l-0.63-3.54c-0.1-0.55-0.35-0.59-0.89-0.49z" fill="#EA1F0A"></path><path d="M31.48 61.32l0.23 1.34c0.1 0.55 0.58 0.96 1.13 0.86l3.55-0.62c0.55-0.1 0.93-0.73 0.84-1.21l-0.24-1.34 1.58-0.28c0.55-0.1 0.65-0.93 0.55-1.48l-0.62-3.54c-0.1-0.55-0.35-0.59-0.9-0.49l-1.58 0.28" fill="#BC0400"></path><path d="M60.9 50.37c0.29 1.65-0.83 3.15-2.4 3.43-1.65 0.29-3.15-0.83-3.43-2.4-0.29-1.65 0.83-3.15 2.4-3.43s3.15 0.83 3.43 2.4z" fill="#329908"></path><path d="M59.68 48.47c1.39 0.97 1.71 2.79 0.73 4.18s-2.79 1.71-4.17 0.73" fill="#236D00"></path><path d="M67.29 54.36c0.29 1.65-0.83 3.15-2.4 3.43-1.65 0.29-3.15-0.83-3.43-2.4-0.29-1.65 0.83-3.15 2.4-3.43 1.56-0.36 3.14 0.75 3.43 2.4z" fill="#07BED6"></path><path d="M66.05 52.38c1.39 0.97 1.71 2.79 0.74 4.18s-2.79 1.71-4.18 0.74" fill="#00A1AD"></path><path d="M68.1 41.87c0.06 0.32-0.1 0.83-0.42 0.88l-43.49 7.67c-0.32 0.06-0.64-0.38-0.69-0.69s0.1-0.83 0.42-0.88l43.49-7.67c0.32-0.06 0.64 0.38 0.69 0.69z" fill="#D8D6CA"></path><path d="M45.62 40.15l-2.37 0.41-0.96-5.43c-0.25-1.42-1.39-2.35-2.73-2.12s-2.21 1.28-1.93 2.86l-2.36 0.41c-0.42-2.36 1.11-5.23 3.79-5.7s5.04 1.39 5.5 4.07l0.98 5.51 0.08-0.01z" fill="#4C5254"></path><path d="M36.24 34.89c-0.63 0.11-1.08 0.76-0.97 1.39 0.25 1.42-0.58 2.7-2 2.96s-2.56-0.69-2.81-2.11l-2.22-12.6-2.36 0.41 2.22 12.61c0.47 2.68 2.91 4.52 5.66 4.04s4.42-3.05 3.95-5.74c-0.11-0.63-0.84-1.07-1.47-0.96z" fill="#2F423F"></path></g></svg>